<svg xmlns="http://www.w3.org/2000/svg" viewBox="0 0 682.217 84.606">
  <path d="M682.217.701h-16.243v34.006H637.81V.701h-16.243v83.204h16.243V49.198h28.164v34.707h16.243zm-84.138 57.612q-2.922 11.803-14.023 11.802-12.74.001-14.257-15.659a49 49 0 0 1-.234-4.674v-7.479q0-17.879 3.155-22.32 3.973-5.492 11.336-5.493 11.219 0 14.023 11.803h16.477q-2.104-12.386-10.108-19.34Q596.442.001 583.94 0q-13.207 0-22.437 9.115-5.61 5.494-7.245 14.374-.936 5.026-.935 18.814-.001 14.024.935 18.814 1.751 8.883 7.245 14.374 9.116 9.115 22.437 9.115 12.385 0 20.51-7.012 8.119-7.011 10.107-19.281zm-50.833 11.101h-38.564V49.198h32.838V34.707h-32.838V15.192h38.564V.701h-54.807v83.204h54.807zM486.245.701H426.53v14.491h21.736v68.713h16.243V15.192h21.736zm-104.119 34.59-9.816-1.402q-10.285-1.401-10.284-9.232 0-5.258 3.984-8.063 3.399-2.454 8.907-2.454 11.016.001 17.113 5.726l10.312-10.167Q392.292.001 375.465 0q-12.388 0-20.334 6.307-8.648 6.773-8.647 18.918-.001 20.205 22.09 23.24l10.046 1.436q9.932 1.403 9.933 9.933 0 10.281-14.724 10.281-13.089 0-20.1-7.011l-10.517 10.517q10.983 10.986 30.383 10.985 12.854 0 21.268-6.077 9.582-6.776 9.583-19.165 0-20.917-22.32-24.073M338.188.701h-16.243v83.204h16.243zm-45.225 63.805q-4.207 5.61-11.335 5.609-12.738.001-14.257-15.659-.35-4.09-.233-12.153V30.15q1.883-15.66 14.371-15.66 12.961 0 14.374 15.66.236 2.57.236 6.076v6.077q0 17.997-3.156 22.203m18.347-41.017q-1.753-8.88-7.245-14.374Q294.95 0 281.628 0c-13.322 0-16.4 3.038-22.554 9.115q-5.61 5.494-7.245 14.374-.936 5.026-.935 18.814-.001 14.024.935 18.814 1.752 9 7.245 14.374 9.232 9.115 22.554 9.115 13.204 0 22.437-9.115 5.725-5.61 7.245-14.374 1.052-6.075 1.052-18.814 0-13.556-1.052-18.814M241.312.701h-16.244v50.951L192.114.701h-14.49v83.204h16.243V32.89l32.996 51.015h14.449zm-76.075 0h-16.243v83.204h16.243zm-22.436 68.713h-37.746V.701H88.812v83.204h53.989zm-60.182 0H44.873V.701H28.63v83.204h53.989zM16.243.701H0v83.204h16.243z" fill="#c00"/>
</svg>
