<svg xmlns="http://www.w3.org/2000/svg" viewBox="0 0 591 591" xml:space="preserve">
  <path fill="#68217A" d="M591 592H1.07V1c196.29 0 392.648 0 589.469.461C591 198.615 591 395.307 591 592M250.41 431.194c-23.736 4.621-46.666 1.853-67.803-9.755-40.043-21.992-58.102-56.576-55.74-101.94 3.762-72.228 79.39-118.442 145.223-88.388 11.47 5.236 21.694 13.199 32.199 19.72l8.477-7.12c-29.341-31.042-80.081-45.261-127.229-26.454-45.954 18.332-76.154 64.858-72.634 120.691 3.025 47.993 37.745 90.873 85.192 104.1 45.787 12.763 91.96-4.866 114.432-30.722l-8.995-8.201c-14.67 14.17-32.01 23.816-53.123 28.07m-41.594-138.967c-8.34 4.881-13.976 12.108-15.882 21.411-1.481 7.229-2.306 14.887-1.65 22.196 1.292 14.383 8.122 25.887 22.293 30.988 14.318 5.153 28.44 4.116 40.33-6.288 16.453-14.397 17.417-47.32 2.338-63.188-10.856-11.423-30.323-13.69-47.429-5.119m215.276-19.5c-17.556 1.858-30.158 11.221-37.904 26.608-10.278 20.418-9.62 41.479-1.052 62.306 4.57 11.109 12.703 19.296 24.163 23.155 18.905 6.367 37.07 3.756 54.214-6.223 1.134-.66 2.443-2.095 2.54-3.263.318-3.869.12-7.78.12-12.127-17.57 11.873-35.46 18.382-54.803 7.505-14.148-7.954-17.19-22.235-17.776-37.761h79.082c2.882-31.138-9.516-63.012-48.584-60.2M312.814 381.914c.698 1.198 1.3 3.35 2.11 3.43 3.716.371 7.49.164 11.61.164v-6.217c0-14.822-.071-29.645.022-44.467.078-12.405 1.29-24.634 7.607-35.698 5.34-9.352 13.173-14.457 24.278-13.015 3.052.396 5.995 1.628 9.413 2.596 0-3.551-.187-7.008.057-10.434.21-2.962-1.051-3.983-3.784-4.655-13.849-3.406-27.23 3.39-34.384 17.674-.748 1.492-1.567 2.948-2.353 4.42l-1.041-.276v-20.131h-13.536zM230.726 153.71l-.538-3.23c-.92.76-2.279 1.337-2.686 2.312-2.279 5.457-4.328 11.01-6.86 17.581-2.352-6.443-4.155-11.766-6.29-16.953-.495-1.2-2.032-2.572-3.252-2.75-2.794-.41-5.689-.13-8.445-.13l-.854-6.645-1.71-.305-1.653 6.083-3.415 2.409 3.933 2.585c0 1.947-.04 4.105.009 6.26.077 3.319-.451 6.863.57 9.872.64 1.885 3.513 3.26 5.666 4.255.787.363 2.387-1.03 3.165-1.406-2.428-1.893-5.372-3.046-5.554-4.538-.61-4.987-.231-10.095-.231-14.58l7.353-2.812c-.083-.159.19.261.37.719 2.183 5.558 4.37 11.115 6.519 16.687 2.98 7.724 1.165 11.719-6.718 15.409 1.742.73 4.097 1.516 5.303.668 2.034-1.43 3.855-3.67 4.857-5.966 3.583-8.208 6.785-16.583 10.46-25.525m110.333 2.095c.465 6.25.93 12.5 1.493 20.041 1.25-1.592 2.507-2.452 2.53-3.343.133-5.317.274-10.666-.163-15.956-.379-4.59-3.772-7.212-8.36-6.432-2.58.438-4.938 2.178-7.59 3.422-4.449-4.73-7.179-4.968-13.186-1l-2.441-2.017c-.511.867-1.448 1.726-1.466 2.602-.125 6.321-.145 12.648.022 18.966.026 1.02 1.152 2.009 1.77 3.012l1.435-.61c0-4.64-.19-9.291.052-13.92.254-4.866 3.214-8.06 6.82-7.579 4.666.623 4.914 4.32 4.981 7.91.086 4.584.021 9.17.021 13.754l1.621.458c.532-1.12 1.464-2.218 1.524-3.362.2-3.817-.431-7.75.276-11.443.474-2.477 2.243-5.233 4.277-6.674 1.126-.799 3.988.852 6.384 2.171m58.158 6.764-1.638 5.4c-2.26-4.653-3.517-9.392-4.997-14.06-.396-1.251-1.472-2.287-2.236-3.421-.833 1.07-2.007 2.018-2.44 3.231-1.711 4.782-3.19 9.647-5.185 15.813-1.4-4.649-2.41-7.888-3.35-11.147-2.143-7.425-2.13-7.429-5.674-7.318 2.09 6.903 4.083 13.714 6.26 20.464.399 1.234 1.551 2.225 2.355 3.328.951-1.147 2.285-2.15 2.783-3.467 1.64-4.34 2.978-8.795 4.432-13.205 2.439 4.858 3.79 9.596 5.325 14.274.3.917 1.188 1.902 2.053 2.268.46.195 1.92-.717 2.135-1.385 2.409-7.468 4.663-14.987 6.958-22.492-6.065 1.762-4.499 7.283-6.78 11.717m-273.44-2.175c2.986-.393 5.993-.672 8.945-1.237 1.178-.226 2.236-1.082 3.35-1.651l-.66-1.597h-11.507v-11.872c2.618 0 4.923.117 7.21-.036 1.976-.132 3.932-.572 5.897-.877l-.312-1.808h-16.31v33.568c4.9 0 9.38.091 13.85-.066 1.079-.038 2.128-.9 3.19-1.382-1.147-.551-2.268-1.498-3.448-1.577-3.258-.22-6.54-.076-10.356-.076 0-3.812 0-7.095.152-11.389m340.195 12.242 5.241 2.51 1.664-2.183-12.748-10.238 11.738-12.338c-7.814.254-9.143 7.558-14.665 9.71 0-4.258.409-8.129-.128-11.864-.437-3.048 2.436-7.332-2.898-9.747v36.804c5.607-2.331 1.085-7.705 3.685-10.22a960 960 0 0 1 8.111 7.566m-103.557-.257c-6.342-.92-8.203-3.002-7.805-9.178h16.17c.613-6.922-1.346-11.312-5.802-12.73-3.873-1.233-7.588-.685-10.605 2.293-4.424 4.367-5.05 9.975-2.961 15.196 1.158 2.893 4.527 5.6 7.537 6.829 2.384.973 5.799-.195 8.63-.908 1.008-.254 1.648-1.967 3.259-4.055-3.583 1.12-5.597 1.75-8.423 2.553m49.384-19.107c-3.737 4.12-3.996 9.018-2.726 14.017 1.112 4.377 4.077 7.184 8.686 7.796 4.908.652 9.296-.3 12.192-4.806 3.278-5.1 2.46-13.766-1.607-17.59-3.96-3.724-10.343-3.702-16.546.583m-125.66 15.136c2.096 7.4 6.825 8.754 14.644 4.457l4.158 2.584c0-6.699.529-12.396-.232-17.916-.36-2.602-2.856-6.46-4.985-6.911-3.327-.705-7.178.944-10.76 1.796-.299.071-.236 1.66-.366 2.751 9.52-3.746 12.08-2.912 12.506 3.998-5.347 2.068-13.366-.246-14.965 9.24m-124.339-7.71c.005 13.386.005 13.386 3.223 13.748 0-4.676-.022-9.317.006-13.958.025-3.943-.184-7.854-4.415-9.743-4.088-1.825-7.781-.78-10.763 2.064l-2.649-2.27c-.463.741-1.317 1.476-1.328 2.223-.098 6.653-.12 13.31.058 19.958.021.785 1.381 1.534 3.093 3.307 0-6.136-.083-10.614.023-15.088.106-4.482 2.904-7.891 6.578-8.016 4.657-.158 5.77 3.06 6.174 7.774m88.753 14.149c.788-1.113 2.165-2.18 2.255-3.346.291-3.76.109-7.557.109-11.886 3.618 0 6.73.088 9.83-.063.766-.038 1.494-.857 2.24-1.316-.756-.616-1.48-1.71-2.274-1.763-3.094-.207-6.21-.084-9.394-.084v-12.332c3.712 0 7.03.108 10.332-.077.81-.045 1.568-1.048 2.35-1.61-.705-.474-1.4-1.339-2.115-1.357-4.768-.122-9.54-.063-14.173-.063 0 11.555 0 22.588.84 33.897m-71.464-24.54-4.45-7.418-2.166 6.647c-1.224.79-2.387 1.482-3.44 2.314-.1.078.47 1.493.76 1.505 4.78.197 3.062 3.798 3.21 6.236.222 3.643-.482 7.468.424 10.895.508 1.925 3.284 3.559 5.394 4.607.886.44 2.693-.978 3.329-1.241-2.338-2.247-5.012-3.592-5.227-5.256-.61-4.707-.214-9.545-.214-13.714l5.812-2.944c-.872-.537-1.744-1.074-3.432-1.631m258.675 10.283c.006 3.976-.056 7.954.078 11.925.026.773.817 1.52 1.255 2.28.598-.77 1.65-1.506 1.712-2.315.223-2.967.038-5.96.147-8.938.281-7.718 1.574-9.301 8.79-11.046-1.8-3.573-3.349-3.461-8.072.519l-2.448-2.876-1.462.4zm-165.992 8.568c.001.827-.175 1.706.046 2.47.317 1.097.923 2.11 1.406 3.16.556-1.144 1.46-2.249 1.595-3.44.258-2.289-.188-4.666.146-6.934.448-3.042.724-6.42 2.286-8.884 1.111-1.751 4.224-2.233 6.44-3.28-1.907-3.293-3.287-3.176-8.06.747l-2.5-2.846-1.359.458zm-84.737 1.966 1.94 3.745c.575-1.174 1.61-2.334 1.645-3.524.173-5.804.176-11.619-.002-17.423-.036-1.177-1.11-2.322-1.707-3.482-.625 1.111-1.75 2.204-1.79 3.335-.189 5.471-.086 10.952-.086 17.35"/>
  <path fill="#69227B" d="M403.952 296.004c8.544-9.898 19.332-12.664 31.36-10.723 12.045 1.944 20.38 11.914 22.572 26.03.43 2.776.56 5.598.865 8.79h-64.685c1.264-8.929 4.075-16.922 9.888-24.097"/>
  <path fill="#793A89" d="M360.093 160.563h-6.246c1.28-4.62 3.173-7.646 7.667-7.68 4.338-.031 5.755 2.985 6.34 7.357-2.575.113-4.95.218-7.761.323"/>
  <path fill="#6B257D" d="M420.07 172.334c-6.168-1.44-8.365-4.383-8.114-10.344.211-5.03 2.79-8.348 6.983-8.983 4.876-.74 8.338 1.821 9.233 6.832 1.276 7.136-1.218 11.197-8.103 12.495"/>
  <path fill="#722F83" d="M299.699 169.794c-2.178 1.001-4.129 2.296-6.015 2.207-1.299-.06-3.428-1.965-3.525-3.178-.123-1.54 1.05-4.065 2.35-4.652 2.606-1.178 5.678-1.33 9.913-2.176-1.031 3.134-1.75 5.318-2.723 7.799"/>
</svg>
