<svg version="1.1" id="Layer_1" xmlns="http://www.w3.org/2000/svg" xmlns:xlink="http://www.w3.org/1999/xlink" x="0px" y="0px"
	 width="100%" viewBox="0 0 591 591" enable-background="new 0 0 591 591" xml:space="preserve">
<path fill="#68217A" opacity="1.000000" stroke="none" 
	d="
M591.000000,592.000000 
	C394.380280,592.000000 197.760559,592.000000 1.070421,592.000000 
	C1.070421,395.093994 1.070421,198.187958 1.070421,1.000000 
	C197.359085,1.000000 393.718292,1.000000 590.538940,1.461255 
	C591.000305,198.615005 591.000122,395.307495 591.000000,592.000000 
M250.409454,431.194153 
	C226.674484,435.815125 203.743652,433.047028 182.606903,421.438660 
	C142.563782,399.446808 124.505150,364.862579 126.867424,319.499603 
	C130.628723,247.271072 206.256866,201.057083 272.090271,231.111145 
	C283.559387,236.346985 293.783722,244.309570 304.288666,250.830093 
	C306.544617,248.935501 309.665283,246.314697 312.766205,243.710480 
	C283.424866,212.668579 232.684814,198.449524 185.537460,217.257172 
	C139.582794,235.589050 109.383057,282.114624 112.902504,337.948486 
	C115.927696,385.941284 150.648407,428.820587 198.095078,442.047180 
	C243.882477,454.811249 290.055725,437.182434 312.526947,411.326202 
	C309.629578,408.684326 306.709106,406.021362 303.532440,403.124756 
	C288.862701,417.295105 271.522705,426.941223 250.409454,431.194153 
M208.815033,292.228424 
	C200.474716,297.109070 194.838760,304.335938 192.932800,313.639282 
	C191.451904,320.867889 190.627472,328.526428 191.283722,335.834747 
	C192.575272,350.217957 199.404800,361.722321 213.576462,366.822937 
	C227.894073,371.976074 242.016312,370.939423 253.906342,360.534943 
	C270.358917,346.137970 271.323212,313.214783 256.243683,297.346680 
	C245.388260,285.923584 225.920639,283.657257 208.815033,292.228424 
M424.090790,272.728119 
	C406.534607,274.585632 393.932709,283.949402 386.187164,299.336334 
	C375.909058,319.754395 376.567169,340.814697 385.135468,361.641602 
	C389.705872,372.750916 397.838043,380.937897 409.297729,384.797180 
	C428.203156,391.164032 446.367859,388.552643 463.512024,378.573547 
	C464.645630,377.913727 465.954773,376.478668 466.051147,375.310791 
	C466.370453,371.442322 466.171661,367.531067 466.171661,363.183533 
	C448.601410,375.056641 430.711609,381.565552 411.368805,370.689484 
	C397.221405,362.734711 394.178802,348.453949 393.592743,332.927643 
	C420.230255,332.927643 446.476349,332.927643 472.674957,332.927643 
	C475.556732,301.790466 463.158691,269.916016 424.090790,272.728119 
M312.814148,381.914429 
	C313.512024,383.112122 314.114685,385.263458 314.924042,385.344269 
	C318.640015,385.715271 322.413818,385.507568 326.533752,385.507568 
	C326.533752,382.909088 326.533752,381.100067 326.533752,379.291016 
	C326.533875,364.468628 326.463013,349.645813 326.556000,334.824036 
	C326.633850,322.419159 327.845551,310.189697 334.162933,299.126434 
	C339.503601,289.773621 347.336304,284.669098 358.441437,286.110596 
	C361.492950,286.506683 364.436035,287.738525 367.853943,288.707336 
	C367.853943,285.156036 367.666565,281.698883 367.910736,278.272552 
	C368.121857,275.310638 366.859772,274.290222 364.126953,273.618042 
	C350.278442,270.211731 336.896362,277.008545 329.742676,291.292236 
	C328.995422,292.784302 328.175842,294.240143 327.389801,295.712769 
	C327.042816,295.620667 326.695862,295.528534 326.348877,295.436432 
	C326.348877,288.693451 326.348877,281.950470 326.348877,275.304993 
	C321.549500,275.304993 317.316040,275.304993 312.813171,275.304993 
	C312.813171,310.753601 312.813171,345.883942 312.814148,381.914429 
M230.725555,153.709579 
	C230.546432,152.632874 230.367310,151.556152 230.188202,150.479446 
	C229.268570,151.240051 227.909241,151.817032 227.502197,152.791718 
	C225.223343,158.248596 223.174454,163.801498 220.641647,170.373444 
	C218.290359,163.929611 216.487244,158.606552 214.351562,153.420441 
	C213.857269,152.220154 212.320419,150.847809 211.100281,150.669342 
	C208.305969,150.260620 205.410980,150.540039 202.654953,150.540039 
	C202.288284,147.688080 202.044418,145.791290 201.800568,143.894501 
	C201.230820,143.792953 200.661072,143.691391 200.091324,143.589844 
	C199.542282,145.610092 198.993240,147.630341 198.438065,149.673172 
	C197.400726,150.404877 196.212067,151.243332 195.023407,152.081772 
	C196.259064,152.894257 197.494705,153.706757 198.955627,154.667358 
	C198.955627,156.613983 198.915298,158.771591 198.964996,160.927109 
	C199.041504,164.246048 198.513779,167.789520 199.535004,170.799149 
	C200.174744,172.684464 203.048447,174.058945 205.201157,175.053802 
	C205.988113,175.417496 207.587524,174.023148 208.365875,173.647949 
	C205.938156,171.755493 202.994354,170.601624 202.812088,169.110245 
	C202.202606,164.123230 202.580978,159.015488 202.580978,154.530380 
	C205.363251,153.466309 207.577698,152.619385 209.934235,151.718124 
	C209.850555,151.559174 210.124847,151.979309 210.304382,152.436661 
	C212.486786,157.995331 214.673386,163.552475 216.822952,169.123901 
	C219.802979,176.847687 217.987549,180.842834 210.104904,184.532623 
	C211.847305,185.262497 214.201950,186.048553 215.408066,185.200714 
	C217.441559,183.771286 219.263138,181.531219 220.265289,179.235474 
	C223.848389,171.027145 227.049698,162.652130 230.725555,153.709579 
M341.057831,155.805130 
	C341.523376,162.054794 341.988892,168.304459 342.550659,175.846176 
	C343.801117,174.253906 345.057892,173.394180 345.080261,172.503448 
	C345.213837,167.186020 345.355255,161.837311 344.918396,156.546600 
	C344.539429,151.956833 341.146240,149.334717 336.557068,150.114883 
	C333.977692,150.553375 331.619537,152.293137 328.968262,153.537445 
	C324.519409,148.807114 321.789185,148.568832 315.781982,152.537628 
	C314.894318,151.804092 314.117584,151.162216 313.340851,150.520325 
	C312.829681,151.387238 311.892822,152.245712 311.875458,153.122391 
	C311.750397,159.443085 311.729706,165.769623 311.896576,172.088486 
	C311.923492,173.107254 313.048676,174.097000 313.666168,175.100174 
	C314.144867,174.896729 314.623596,174.693283 315.102295,174.489853 
	C315.102295,169.849167 314.912811,165.198593 315.154297,160.570511 
	C315.408173,155.704025 318.367584,152.510101 321.973267,152.991440 
	C326.640320,153.614410 326.888214,157.310257 326.955231,160.901627 
	C327.040741,165.484634 326.975952,170.070419 326.975952,174.655014 
	C327.516388,174.807785 328.056793,174.960556 328.597229,175.113327 
	C329.129395,173.993790 330.060852,172.895142 330.120758,171.750885 
	C330.320587,167.933792 329.689606,164.001038 330.396942,160.307938 
	C330.871216,157.831467 332.640320,155.074585 334.673676,153.633575 
	C335.799835,152.835480 338.661591,154.486389 341.057831,155.805130 
M399.216156,162.568604 
	C398.670074,164.368942 398.123993,166.169281 397.577911,167.969620 
	C395.318207,163.315720 394.060883,158.576721 392.580963,153.908295 
	C392.184509,152.657654 391.109100,151.622238 390.345367,150.488022 
	C389.511780,151.557922 388.338440,152.506271 387.904541,153.719147 
	C386.193817,158.500946 384.715393,163.365829 382.719696,169.531631 
	C381.319855,164.883347 380.310425,161.644028 379.369690,158.384888 
	C377.226593,150.960403 377.240295,150.956451 373.696320,151.067184 
	C375.786621,157.970322 377.778992,164.780670 379.956573,171.531235 
	C380.354675,172.765350 381.507050,173.756119 382.311249,174.859238 
	C383.262177,173.712296 384.595673,172.709930 385.093872,171.391861 
	C386.734253,167.051804 388.072113,162.597427 389.526154,158.186966 
	C391.964569,163.044708 393.315491,167.783081 394.850830,172.460907 
	C395.151825,173.377930 396.038513,174.363159 396.903687,174.729218 
	C397.364838,174.924316 398.824036,174.012466 399.039459,173.344452 
	C401.447876,165.875656 403.701538,158.356949 405.996887,150.851700 
	C399.931885,152.613571 401.498413,158.135269 399.216156,162.568604 
M125.777840,160.394363 
	C128.762756,160.000687 131.769608,159.721649 134.721771,159.156830 
	C135.900421,158.931335 136.958389,158.075089 138.071304,157.505981 
	C137.851395,156.973709 137.631470,156.441452 137.411560,155.909180 
	C133.643188,155.909180 129.874817,155.909180 125.905098,155.909180 
	C125.905098,151.804901 125.905098,148.110626 125.905098,144.036911 
	C128.522507,144.036911 130.827805,144.154465 133.114960,144.001221 
	C135.091293,143.868820 137.047028,143.428635 139.011856,143.124496 
	C138.908020,142.521637 138.804169,141.918777 138.700333,141.315918 
	C133.202545,141.315918 127.704773,141.315918 122.389160,141.315918 
	C122.389160,152.666229 122.389160,163.682465 122.389160,174.883820 
	C127.290390,174.883820 131.769882,174.975113 136.240631,174.817749 
	C137.318924,174.779800 138.368271,173.918640 139.430923,173.436066 
	C138.282990,172.885040 137.161697,171.938156 135.982040,171.858826 
	C132.723877,171.639664 129.441315,171.783005 125.626404,171.783005 
	C125.626404,167.971390 125.626404,164.688156 125.777840,160.394363 
M465.973236,172.636185 
	C467.720184,173.472656 469.467133,174.309113 471.214050,175.145584 
	C471.768860,174.417999 472.323639,173.690414 472.878418,172.962845 
	C468.655334,169.571457 464.432251,166.180069 460.130127,162.725220 
	C464.380341,158.257599 467.706940,154.760834 471.867584,150.387329 
	C464.053650,150.640732 462.725220,157.945084 457.203247,160.096939 
	C457.203247,155.839050 457.611877,151.968170 457.075348,148.233063 
	C456.637512,145.185318 459.511383,140.901276 454.176910,138.485641 
	C454.176910,151.002060 454.176910,162.777802 454.176910,175.290009 
	C459.783508,172.958908 455.262054,167.585327 457.862122,165.069199 
	C460.421722,167.437912 462.947388,169.775208 465.973236,172.636185 
M362.416046,172.379379 
	C356.074493,171.459473 354.213226,169.377319 354.611481,163.200928 
	C359.990784,163.200928 365.408722,163.200928 370.780731,163.200928 
	C371.393768,156.279114 369.434631,151.888962 364.978516,150.470505 
	C361.106079,149.237854 357.391113,149.786072 354.374298,152.763885 
	C349.950348,157.130646 349.323059,162.739120 351.412994,167.960480 
	C352.570740,170.852936 355.940125,173.559921 358.950134,174.788589 
	C361.334290,175.761765 364.748779,174.593872 367.580872,173.880798 
	C368.588318,173.627136 369.228210,171.913574 370.838531,169.825821 
	C367.255554,170.945892 365.241943,171.575363 362.416046,172.379379 
M411.799500,153.272217 
	C408.063080,157.392288 407.803558,162.290436 409.073608,167.289352 
	C410.185547,171.665848 413.150543,174.473419 417.759857,175.085327 
	C422.667603,175.736862 427.055573,174.785309 429.952271,170.278610 
	C433.229675,165.179520 432.412628,156.513000 428.344727,152.688171 
	C424.385193,148.965271 418.001953,148.987259 411.799500,153.272217 
M286.138733,168.407532 
	C288.234924,175.808167 292.963623,177.162048 300.783295,172.864594 
	C302.044220,173.648544 303.165558,174.345703 304.940918,175.449478 
	C304.940918,168.749969 305.469910,163.052658 304.708771,157.533264 
	C304.349854,154.930588 301.853271,151.072250 299.724426,150.621628 
	C296.397308,149.917358 292.545624,151.566315 288.963776,152.418427 
	C288.665222,152.489441 288.727844,154.078568 288.598053,155.169037 
	C298.117249,151.422546 300.677612,152.256882 301.104370,159.166672 
	C295.756775,161.234665 287.738068,158.920853 286.138733,168.407532 
M161.800247,160.696381 
	C161.804504,174.083450 161.804504,174.083450 165.022736,174.444763 
	C165.022736,169.768524 165.000793,165.127579 165.029434,160.486954 
	C165.053757,156.544083 164.844559,152.632858 160.614456,150.744186 
	C156.525726,148.918671 152.832581,149.964096 149.850845,152.808289 
	C148.928589,152.017838 148.065460,151.278076 147.202332,150.538315 
	C146.739075,151.279068 145.884705,152.014053 145.873703,152.761459 
	C145.775864,159.413681 145.753830,166.070068 145.931992,172.719254 
	C145.953049,173.504242 147.313095,174.253342 149.024582,176.025925 
	C149.024582,169.890381 148.941757,165.411957 149.047852,160.938004 
	C149.154160,156.455643 151.952225,153.046555 155.626114,152.921921 
	C160.283325,152.763916 161.395294,155.981110 161.800247,160.696381 
M250.553009,174.844635 
	C251.340851,173.732269 252.717651,172.665512 252.807999,171.499146 
	C253.099228,167.739044 252.916534,163.942230 252.916534,159.612549 
	C256.534973,159.612549 259.646637,159.701340 262.746521,159.549545 
	C263.512939,159.512024 264.241150,158.693207 264.986908,158.233536 
	C264.230713,157.617966 263.506500,156.524445 262.712646,156.471298 
	C259.619324,156.264175 256.503906,156.386841 253.319366,156.386841 
	C253.319366,151.942154 253.319366,148.094330 253.319366,144.055267 
	C257.030945,144.055267 260.349396,144.163315 263.651367,143.978165 
	C264.461945,143.932709 265.218811,142.929794 266.000366,142.367065 
	C265.296051,141.893951 264.601746,141.029373 263.885773,141.011047 
	C259.118103,140.888931 254.345795,140.947708 249.712662,140.947708 
	C249.712662,152.503433 249.712662,163.536377 250.553009,174.844635 
M179.088989,150.304733 
	C177.848022,148.236557 176.607071,146.168365 174.638321,142.887238 
	C173.761002,145.580429 173.067871,147.708160 172.472977,149.534348 
	C171.248749,150.324142 170.086029,151.016388 169.033035,151.847610 
	C168.933273,151.926361 169.502533,153.341339 169.793396,153.353333 
	C174.573608,153.550034 172.855026,157.151337 173.003464,159.588699 
	C173.225327,163.232010 172.521439,167.057388 173.426697,170.484268 
	C173.935211,172.409271 176.711060,174.043015 178.821487,175.090775 
	C179.706680,175.530212 181.513840,174.112595 182.149612,173.849976 
	C179.811707,171.603226 177.138428,170.257874 176.922729,168.593964 
	C176.312546,163.886887 176.709183,159.049286 176.709183,154.880493 
	C179.066040,153.686325 180.793335,152.811142 182.520615,151.935959 
	C181.648651,151.398758 180.776688,150.861557 179.088989,150.304733 
M437.764069,160.587982 
	C437.770294,164.563782 437.707916,168.541901 437.842010,172.513382 
	C437.868103,173.286316 438.658691,174.033432 439.096649,174.792465 
	C439.694550,174.022858 440.747925,173.287476 440.808777,172.477539 
	C441.031555,169.511475 440.847351,166.517822 440.955902,163.539642 
	C441.237213,155.822418 442.530304,154.238693 449.746857,152.493744 
	C447.946686,148.920944 446.397369,149.032761 441.674316,153.012833 
	C440.861359,152.057999 440.043671,151.097610 439.225983,150.137207 
	C438.738678,150.270233 438.251404,150.403259 437.764099,150.536285 
	C437.764099,153.568314 437.764099,156.600357 437.764069,160.587982 
M271.772186,169.155762 
	C271.773224,169.983337 271.596863,170.862183 271.817657,171.626266 
	C272.134583,172.723297 272.740936,173.736694 273.223755,174.785797 
	C273.780334,173.641846 274.684937,172.537094 274.819061,171.345596 
	C275.076721,169.057159 274.630890,166.680252 274.964966,164.411942 
	C275.413025,161.369522 275.688843,157.992554 277.251373,155.528152 
	C278.362030,153.776520 281.475159,153.294571 283.690094,152.248077 
	C281.783569,148.954544 280.403503,149.072464 275.631439,152.994873 
	C274.797638,152.046036 273.964050,151.097412 273.130432,150.148788 
	C272.677704,150.301636 272.224945,150.454498 271.772217,150.607346 
	C271.772217,156.483917 271.772217,162.360474 271.772186,169.155762 
M187.035126,171.122482 
	C187.681976,172.370728 188.328827,173.618958 188.975662,174.867203 
	C189.549789,173.693390 190.584534,172.533310 190.619995,171.343445 
	C190.792953,165.539246 190.796173,159.724152 190.618454,153.920288 
	C190.582428,152.743332 189.507095,151.598190 188.910904,150.438385 
	C188.286011,151.549072 187.160294,152.642426 187.121201,153.773376 
	C186.932083,159.244202 187.034988,164.725159 187.035126,171.122482 
z"/>
<path fill="#FFFFFF" opacity="1.000000" stroke="none" 
	d="
M591.500000,592.000000 
	C591.000122,395.307495 591.000305,198.615005 591.000244,1.461264 
	C591.333313,1.166686 591.943787,1.315942 591.955566,1.502813 
	C592.039001,2.830884 592.000000,4.166667 592.000000,5.500000 
	C592.000000,201.000000 592.000000,396.500000 591.500000,592.000000 
z"/>
<path fill="#FCFAFC" opacity="1.000000" stroke="none" 
	d="
M250.834930,431.124146 
	C271.522705,426.941223 288.862701,417.295105 303.532440,403.124756 
	C306.709106,406.021362 309.629578,408.684326 312.526947,411.326202 
	C290.055725,437.182434 243.882477,454.811249 198.095078,442.047180 
	C150.648407,428.820587 115.927696,385.941284 112.902504,337.948486 
	C109.383057,282.114624 139.582794,235.589050 185.537460,217.257172 
	C232.684814,198.449524 283.424866,212.668579 312.766205,243.710480 
	C309.665283,246.314697 306.544617,248.935501 304.288666,250.830093 
	C293.783722,244.309570 283.559387,236.346985 272.090271,231.111145 
	C206.256866,201.057083 130.628723,247.271072 126.867424,319.499603 
	C124.505150,364.862579 142.563782,399.446808 182.606903,421.438660 
	C203.743652,433.047028 226.674484,435.815125 250.834930,431.124146 
z"/>
<path fill="#40CBF3" opacity="1.000000" stroke="none" 
	d="
M209.144562,292.065216 
	C225.920639,283.657257 245.388260,285.923584 256.243683,297.346680 
	C271.323212,313.214783 270.358917,346.137970 253.906342,360.534943 
	C242.016312,370.939423 227.894073,371.976074 213.576462,366.822937 
	C199.404800,361.722321 192.575272,350.217957 191.283722,335.834747 
	C190.627472,328.526428 191.451904,320.867889 192.932800,313.639282 
	C194.838760,304.335938 200.474716,297.109070 209.144562,292.065216 
z"/>
<path fill="#FBF9FB" opacity="1.000000" stroke="none" 
	d="
M424.532898,272.662872 
	C463.158691,269.916016 475.556732,301.790466 472.674957,332.927643 
	C446.476349,332.927643 420.230255,332.927643 393.592743,332.927643 
	C394.178802,348.453949 397.221405,362.734711 411.368805,370.689484 
	C430.711609,381.565552 448.601410,375.056641 466.171661,363.183533 
	C466.171661,367.531067 466.370453,371.442322 466.051147,375.310791 
	C465.954773,376.478668 464.645630,377.913727 463.512024,378.573547 
	C446.367859,388.552643 428.203156,391.164032 409.297729,384.797180 
	C397.838043,380.937897 389.705872,372.750916 385.135468,361.641602 
	C376.567169,340.814697 375.909058,319.754395 386.187164,299.336334 
	C393.932709,283.949402 406.534607,274.585632 424.532898,272.662872 
M403.723419,296.282471 
	C398.139191,303.179443 395.328064,311.171967 394.064392,320.100586 
	C415.758820,320.100586 437.125000,320.100586 458.749329,320.100586 
	C458.443726,316.909119 458.314758,314.086609 457.883881,311.310944 
	C455.692535,297.194702 447.356750,287.225189 435.311768,285.281097 
	C423.283905,283.339783 412.495819,286.105591 403.723419,296.282471 
z"/>
<path fill="#FBF9FB" opacity="1.000000" stroke="none" 
	d="
M312.813660,381.464355 
	C312.813171,345.883942 312.813171,310.753601 312.813171,275.304993 
	C317.316040,275.304993 321.549500,275.304993 326.348877,275.304993 
	C326.348877,281.950470 326.348877,288.693451 326.348877,295.436432 
	C326.695862,295.528534 327.042816,295.620667 327.389801,295.712769 
	C328.175842,294.240143 328.995422,292.784302 329.742676,291.292236 
	C336.896362,277.008545 350.278442,270.211731 364.126953,273.618042 
	C366.859772,274.290222 368.121857,275.310638 367.910736,278.272552 
	C367.666565,281.698883 367.853943,285.156036 367.853943,288.707336 
	C364.436035,287.738525 361.492950,286.506683 358.441437,286.110596 
	C347.336304,284.669098 339.503601,289.773621 334.162933,299.126434 
	C327.845551,310.189697 326.633850,322.419159 326.556000,334.824036 
	C326.463013,349.645813 326.533875,364.468628 326.533752,379.291016 
	C326.533752,381.100067 326.533752,382.909088 326.533752,385.507568 
	C322.413818,385.507568 318.640015,385.715271 314.924042,385.344269 
	C314.114685,385.263458 313.512024,383.112122 312.813660,381.464355 
z"/>
<path fill="#F1EBF3" opacity="1.000000" stroke="none" 
	d="
M230.560486,154.024872 
	C227.049698,162.652130 223.848389,171.027145 220.265289,179.235474 
	C219.263138,181.531219 217.441559,183.771286 215.408066,185.200714 
	C214.201950,186.048553 211.847305,185.262497 210.104904,184.532623 
	C217.987549,180.842834 219.802979,176.847687 216.822952,169.123901 
	C214.673386,163.552475 212.486786,157.995331 210.304382,152.436661 
	C210.124847,151.979309 209.850555,151.559174 209.934235,151.718124 
	C207.577698,152.619385 205.363251,153.466309 202.580978,154.530380 
	C202.580978,159.015488 202.202606,164.123230 202.812088,169.110245 
	C202.994354,170.601624 205.938156,171.755493 208.365875,173.647949 
	C207.587524,174.023148 205.988113,175.417496 205.201157,175.053802 
	C203.048447,174.058945 200.174744,172.684464 199.535004,170.799149 
	C198.513779,167.789520 199.041504,164.246048 198.964996,160.927109 
	C198.915298,158.771591 198.955627,156.613983 198.955627,154.667358 
	C197.494705,153.706757 196.259064,152.894257 195.023407,152.081772 
	C196.212067,151.243332 197.400726,150.404877 198.438065,149.673172 
	C198.993240,147.630341 199.542282,145.610092 200.091324,143.589844 
	C200.661072,143.691391 201.230820,143.792953 201.800568,143.894501 
	C202.044418,145.791290 202.288284,147.688080 202.654953,150.540039 
	C205.410980,150.540039 208.305969,150.260620 211.100281,150.669342 
	C212.320419,150.847809 213.857269,152.220154 214.351562,153.420441 
	C216.487244,158.606552 218.290359,163.929611 220.641647,170.373444 
	C223.174454,163.801498 225.223343,158.248596 227.502197,152.791718 
	C227.909241,151.817032 229.268570,151.240051 230.188202,150.479446 
	C230.367310,151.556152 230.546432,152.632874 230.560486,154.024872 
z"/>
<path fill="#F8F5F9" opacity="1.000000" stroke="none" 
	d="
M340.899414,155.419266 
	C338.661591,154.486389 335.799835,152.835480 334.673676,153.633575 
	C332.640320,155.074585 330.871216,157.831467 330.396942,160.307938 
	C329.689606,164.001038 330.320587,167.933792 330.120758,171.750885 
	C330.060852,172.895142 329.129395,173.993790 328.597229,175.113327 
	C328.056793,174.960556 327.516388,174.807785 326.975952,174.655014 
	C326.975952,170.070419 327.040741,165.484634 326.955231,160.901627 
	C326.888214,157.310257 326.640320,153.614410 321.973267,152.991440 
	C318.367584,152.510101 315.408173,155.704025 315.154297,160.570511 
	C314.912811,165.198593 315.102295,169.849167 315.102295,174.489853 
	C314.623596,174.693283 314.144867,174.896729 313.666168,175.100174 
	C313.048676,174.097000 311.923492,173.107254 311.896576,172.088486 
	C311.729706,165.769623 311.750397,159.443085 311.875458,153.122391 
	C311.892822,152.245712 312.829681,151.387238 313.340851,150.520325 
	C314.117584,151.162216 314.894318,151.804092 315.781982,152.537628 
	C321.789185,148.568832 324.519409,148.807114 328.968262,153.537445 
	C331.619537,152.293137 333.977692,150.553375 336.557068,150.114883 
	C341.146240,149.334717 344.539429,151.956833 344.918396,156.546600 
	C345.355255,161.837311 345.213837,167.186020 345.080261,172.503448 
	C345.057892,173.394180 343.801117,174.253906 342.550659,175.846176 
	C341.988892,168.304459 341.523376,162.054794 340.899414,155.419266 
z"/>
<path fill="#F0E8F1" opacity="1.000000" stroke="none" 
	d="
M399.351562,162.189056 
	C401.498413,158.135269 399.931885,152.613571 405.996887,150.851700 
	C403.701538,158.356949 401.447876,165.875656 399.039459,173.344452 
	C398.824036,174.012466 397.364838,174.924316 396.903687,174.729218 
	C396.038513,174.363159 395.151825,173.377930 394.850830,172.460907 
	C393.315491,167.783081 391.964569,163.044708 389.526154,158.186966 
	C388.072113,162.597427 386.734253,167.051804 385.093872,171.391861 
	C384.595673,172.709930 383.262177,173.712296 382.311218,174.859222 
	C381.507050,173.756119 380.354675,172.765350 379.956573,171.531235 
	C377.778992,164.780670 375.786621,157.970322 373.696320,151.067184 
	C377.240295,150.956451 377.226593,150.960403 379.369690,158.384888 
	C380.310425,161.644028 381.319855,164.883347 382.719696,169.531631 
	C384.715393,163.365829 386.193817,158.500946 387.904541,153.719147 
	C388.338440,152.506271 389.511780,151.557922 390.345367,150.488022 
	C391.109100,151.622238 392.184509,152.657654 392.580963,153.908295 
	C394.060883,158.576721 395.318207,163.315720 397.577911,167.969620 
	C398.123993,166.169281 398.670074,164.368942 399.351562,162.189056 
z"/>
<path fill="#F4EEF5" opacity="1.000000" stroke="none" 
	d="
M125.702118,160.899643 
	C125.626404,164.688156 125.626404,167.971390 125.626404,171.783005 
	C129.441315,171.783005 132.723877,171.639664 135.982040,171.858826 
	C137.161697,171.938156 138.282990,172.885040 139.430923,173.436066 
	C138.368271,173.918640 137.318924,174.779800 136.240631,174.817749 
	C131.769882,174.975113 127.290390,174.883820 122.389160,174.883820 
	C122.389160,163.682465 122.389160,152.666229 122.389160,141.315918 
	C127.704773,141.315918 133.202545,141.315918 138.700333,141.315918 
	C138.804169,141.918777 138.908020,142.521637 139.011856,143.124496 
	C137.047028,143.428635 135.091293,143.868820 133.114960,144.001221 
	C130.827805,144.154465 128.522507,144.036911 125.905098,144.036911 
	C125.905098,148.110626 125.905098,151.804901 125.905098,155.909180 
	C129.874817,155.909180 133.643188,155.909180 137.411560,155.909180 
	C137.631470,156.441452 137.851395,156.973709 138.071304,157.505981 
	C136.958389,158.075089 135.900421,158.931335 134.721771,159.156830 
	C131.769608,159.721649 128.762756,160.000687 125.702118,160.899643 
z"/>
<path fill="#F7F3F8" opacity="1.000000" stroke="none" 
	d="
M465.723145,172.374344 
	C462.947388,169.775208 460.421722,167.437912 457.862122,165.069199 
	C455.262054,167.585327 459.783508,172.958908 454.176910,175.290009 
	C454.176910,162.777802 454.176910,151.002060 454.176910,138.485641 
	C459.511383,140.901276 456.637512,145.185318 457.075348,148.233063 
	C457.611877,151.968170 457.203247,155.839050 457.203247,160.096939 
	C462.725220,157.945084 464.053650,150.640732 471.867584,150.387329 
	C467.706940,154.760834 464.380341,158.257599 460.130127,162.725220 
	C464.432251,166.180069 468.655334,169.571457 472.878418,172.962845 
	C472.323639,173.690414 471.768860,174.417999 471.214050,175.145584 
	C469.467133,174.309113 467.720184,173.472656 465.723145,172.374344 
z"/>
<path fill="#F7F3F8" opacity="1.000000" stroke="none" 
	d="
M362.822205,172.292114 
	C365.241943,171.575363 367.255554,170.945892 370.838531,169.825821 
	C369.228210,171.913574 368.588318,173.627136 367.580872,173.880798 
	C364.748779,174.593872 361.334290,175.761765 358.950134,174.788589 
	C355.940125,173.559921 352.570740,170.852936 351.412994,167.960480 
	C349.323059,162.739120 349.950348,157.130646 354.374298,152.763885 
	C357.391113,149.786072 361.106079,149.237854 364.978516,150.470505 
	C369.434631,151.888962 371.393768,156.279114 370.780731,163.200928 
	C365.408722,163.200928 359.990784,163.200928 354.611481,163.200928 
	C354.213226,169.377319 356.074493,171.459473 362.822205,172.292114 
M360.528656,160.562927 
	C362.903931,160.458160 365.279205,160.353394 367.854645,160.239792 
	C367.269287,155.867981 365.851593,152.851700 361.513794,152.883636 
	C357.019531,152.916702 355.126373,155.943161 353.846832,160.562775 
	C356.167358,160.562775 357.912079,160.562775 360.528656,160.562927 
z"/>
<path fill="#F1EBF3" opacity="1.000000" stroke="none" 
	d="
M412.069916,153.007751 
	C418.001953,148.987259 424.385193,148.965271 428.344727,152.688171 
	C432.412628,156.513000 433.229675,165.179520 429.952271,170.278610 
	C427.055573,174.785309 422.667603,175.736862 417.759857,175.085327 
	C413.150543,174.473419 410.185547,171.665848 409.073608,167.289352 
	C407.803558,162.290436 408.063080,157.392288 412.069916,153.007751 
M420.481293,172.360504 
	C426.953674,171.035553 429.447510,166.975281 428.172028,159.838943 
	C427.276520,154.828476 423.815033,152.267075 418.938812,153.006607 
	C414.746704,153.642410 412.167023,156.960800 411.955658,161.989563 
	C411.705078,167.950577 413.902405,170.894333 420.481293,172.360504 
z"/>
<path fill="#F4EEF5" opacity="1.000000" stroke="none" 
	d="
M286.144806,168.026306 
	C287.738068,158.920853 295.756775,161.234665 301.104370,159.166672 
	C300.677612,152.256882 298.117249,151.422546 288.598053,155.169037 
	C288.727844,154.078568 288.665222,152.489441 288.963776,152.418427 
	C292.545624,151.566315 296.397308,149.917358 299.724426,150.621628 
	C301.853271,151.072250 304.349854,154.930588 304.708771,157.533264 
	C305.469910,163.052658 304.940918,168.749969 304.940918,175.449478 
	C303.165558,174.345703 302.044220,173.648544 300.783295,172.864594 
	C292.963623,177.162048 288.234924,175.808167 286.144806,168.026306 
M299.953644,169.496628 
	C300.672272,167.312927 301.390900,165.129227 302.422241,161.995224 
	C298.186554,162.841324 295.115479,162.992844 292.508331,164.170975 
	C291.209778,164.757767 290.036041,167.283096 290.159241,168.823257 
	C290.256287,170.036377 292.385437,171.940353 293.684052,172.001282 
	C295.570129,172.089737 297.521088,170.795151 299.953644,169.496628 
z"/>
<path fill="#F8F5F9" opacity="1.000000" stroke="none" 
	d="
M161.797714,160.227188 
	C161.395294,155.981110 160.283325,152.763916 155.626114,152.921921 
	C151.952225,153.046555 149.154160,156.455643 149.047852,160.938004 
	C148.941757,165.411957 149.024582,169.890381 149.024582,176.025925 
	C147.313095,174.253342 145.953049,173.504242 145.931992,172.719254 
	C145.753830,166.070068 145.775864,159.413681 145.873703,152.761459 
	C145.884705,152.014053 146.739075,151.279068 147.202332,150.538315 
	C148.065460,151.278076 148.928589,152.017838 149.850845,152.808289 
	C152.832581,149.964096 156.525726,148.918671 160.614456,150.744186 
	C164.844559,152.632858 165.053757,156.544083 165.029434,160.486954 
	C165.000793,165.127579 165.022736,169.768524 165.022736,174.444763 
	C161.804504,174.083450 161.804504,174.083450 161.797714,160.227188 
z"/>
<path fill="#ECE3EE" opacity="1.000000" stroke="none" 
	d="
M250.132843,174.706970 
	C249.712662,163.536377 249.712662,152.503433 249.712662,140.947708 
	C254.345795,140.947708 259.118103,140.888931 263.885773,141.011047 
	C264.601746,141.029373 265.296051,141.893951 266.000366,142.367065 
	C265.218811,142.929794 264.461945,143.932709 263.651367,143.978165 
	C260.349396,144.163315 257.030945,144.055267 253.319366,144.055267 
	C253.319366,148.094330 253.319366,151.942154 253.319366,156.386841 
	C256.503906,156.386841 259.619324,156.264175 262.712646,156.471298 
	C263.506500,156.524445 264.230713,157.617966 264.986908,158.233536 
	C264.241150,158.693207 263.512939,159.512024 262.746521,159.549545 
	C259.646637,159.701340 256.534973,159.612549 252.916534,159.612549 
	C252.916534,163.942230 253.099228,167.739044 252.807999,171.499146 
	C252.717651,172.665512 251.340851,173.732269 250.132843,174.706970 
z"/>
<path fill="#E5D8E8" opacity="1.000000" stroke="none" 
	d="
M179.496857,150.314545 
	C180.776688,150.861557 181.648651,151.398758 182.520615,151.935959 
	C180.793335,152.811142 179.066040,153.686325 176.709183,154.880493 
	C176.709183,159.049286 176.312546,163.886887 176.922729,168.593964 
	C177.138428,170.257874 179.811707,171.603226 182.149612,173.849976 
	C181.513840,174.112595 179.706680,175.530212 178.821487,175.090775 
	C176.711060,174.043015 173.935211,172.409271 173.426697,170.484268 
	C172.521439,167.057388 173.225327,163.232010 173.003464,159.588699 
	C172.855026,157.151337 174.573608,153.550034 169.793396,153.353333 
	C169.502533,153.341339 168.933273,151.926361 169.033035,151.847610 
	C170.086029,151.016388 171.248749,150.324142 172.472977,149.534348 
	C173.067871,147.708160 173.761002,145.580429 174.638321,142.887238 
	C176.607071,146.168365 177.848022,148.236557 179.496857,150.314545 
z"/>
<path fill="#F0E8F1" opacity="1.000000" stroke="none" 
	d="
M437.764099,160.110184 
	C437.764099,156.600357 437.764099,153.568314 437.764099,150.536285 
	C438.251404,150.403259 438.738678,150.270233 439.225983,150.137207 
	C440.043671,151.097610 440.861359,152.057999 441.674316,153.012833 
	C446.397369,149.032761 447.946686,148.920944 449.746857,152.493744 
	C442.530304,154.238693 441.237213,155.822418 440.955902,163.539642 
	C440.847351,166.517822 441.031555,169.511475 440.808777,172.477539 
	C440.747925,173.287476 439.694550,174.022858 439.096649,174.792465 
	C438.658691,174.033432 437.868103,173.286316 437.842010,172.513382 
	C437.707916,168.541901 437.770294,164.563782 437.764099,160.110184 
z"/>
<path fill="#F1EBF3" opacity="1.000000" stroke="none" 
	d="
M271.772217,168.696411 
	C271.772217,162.360474 271.772217,156.483917 271.772217,150.607346 
	C272.224945,150.454498 272.677704,150.301636 273.130432,150.148788 
	C273.964050,151.097412 274.797638,152.046036 275.631439,152.994873 
	C280.403503,149.072464 281.783569,148.954544 283.690094,152.248077 
	C281.475159,153.294571 278.362030,153.776520 277.251373,155.528152 
	C275.688843,157.992554 275.413025,161.369522 274.964966,164.411942 
	C274.630890,166.680252 275.076721,169.057159 274.819061,171.345596 
	C274.684937,172.537094 273.780334,173.641846 273.223755,174.785797 
	C272.740936,173.736694 272.134583,172.723297 271.817657,171.626266 
	C271.596863,170.862183 271.773224,169.983337 271.772217,168.696411 
z"/>
<path fill="#E1D3E5" opacity="1.000000" stroke="none" 
	d="
M187.034744,170.662506 
	C187.034988,164.725159 186.932083,159.244202 187.121201,153.773376 
	C187.160294,152.642426 188.286011,151.549072 188.910904,150.438385 
	C189.507095,151.598190 190.582428,152.743332 190.618454,153.920288 
	C190.796173,159.724152 190.792953,165.539246 190.619995,171.343445 
	C190.584534,172.533310 189.549789,173.693390 188.975662,174.867203 
	C188.328827,173.618958 187.681976,172.370728 187.034744,170.662506 
z"/>
<path fill="#69227B" opacity="1.000000" stroke="none" 
	d="
M403.951599,296.004211 
	C412.495819,286.105591 423.283905,283.339783 435.311768,285.281097 
	C447.356750,287.225189 455.692535,297.194702 457.883881,311.310944 
	C458.314758,314.086609 458.443726,316.909119 458.749329,320.100586 
	C437.125000,320.100586 415.758820,320.100586 394.064392,320.100586 
	C395.328064,311.171967 398.139191,303.179443 403.951599,296.004211 
z"/>
<path fill="#793A89" opacity="1.000000" stroke="none" 
	d="
M360.092712,160.562851 
	C357.912079,160.562775 356.167358,160.562775 353.846832,160.562775 
	C355.126373,155.943161 357.019531,152.916702 361.513794,152.883636 
	C365.851593,152.851700 367.269287,155.867981 367.854645,160.239792 
	C365.279205,160.353394 362.903931,160.458160 360.092712,160.562851 
z"/>
<path fill="#6B257D" opacity="1.000000" stroke="none" 
	d="
M420.069275,172.333954 
	C413.902405,170.894333 411.705078,167.950577 411.955658,161.989563 
	C412.167023,156.960800 414.746704,153.642410 418.938812,153.006607 
	C423.815033,152.267075 427.276520,154.828476 428.172028,159.838943 
	C429.447510,166.975281 426.953674,171.035553 420.069275,172.333954 
z"/>
<path fill="#722F83" opacity="1.000000" stroke="none" 
	d="
M299.699005,169.793518 
	C297.521088,170.795151 295.570129,172.089737 293.684052,172.001282 
	C292.385437,171.940353 290.256287,170.036377 290.159241,168.823257 
	C290.036041,167.283096 291.209778,164.757767 292.508331,164.170975 
	C295.115479,162.992844 298.186554,162.841324 302.422241,161.995224 
	C301.390900,165.129227 300.672272,167.312927 299.699005,169.793518 
z"/>
</svg>